# Blender v3.0.0 OBJ File: ''
# www.blender.org
mtllib drone.mtl
o Icosphere
v 0.000000 -1.000000 0.000000
v 0.723607 -0.447220 0.525725
v -0.276388 -0.447220 0.850649
v -0.894426 -0.447216 0.000000
v -0.276388 -0.447220 -0.850649
v 0.723607 -0.447220 -0.525725
v 0.276388 0.447220 0.850649
v -0.723607 0.447220 0.525725
v -0.723607 0.447220 -0.525725
v 0.276388 0.447220 -0.850649
v 0.894426 0.447216 0.000000
v 0.000000 1.000000 0.000000
v -0.162456 -0.850654 0.499995
v 0.425323 -0.850654 0.309011
v 0.262869 -0.525738 0.809012
v 0.850648 -0.525736 0.000000
v 0.425323 -0.850654 -0.309011
v -0.525730 -0.850652 0.000000
v -0.688189 -0.525736 0.499997
v -0.162456 -0.850654 -0.499995
v -0.688189 -0.525736 -0.499997
v 0.262869 -0.525738 -0.809012
v 0.951058 0.000000 0.309013
v 0.951058 0.000000 -0.309013
v 0.000000 0.000000 1.000000
v 0.587786 0.000000 0.809017
v -0.951058 0.000000 0.309013
v -0.587786 0.000000 0.809017
v -0.587786 0.000000 -0.809017
v -0.951058 0.000000 -0.309013
v 0.587786 0.000000 -0.809017
v 0.000000 0.000000 -1.000000
v 0.688189 0.525736 0.499997
v -0.262869 0.525738 0.809012
v -0.850648 0.525736 0.000000
v -0.262869 0.525738 -0.809012
v 0.688189 0.525736 -0.499997
v 0.162456 0.850654 0.499995
v 0.525730 0.850652 0.000000
v -0.425323 0.850654 0.309011
v -0.425323 0.850654 -0.309011
v 0.162456 0.850654 -0.499995
v 0.524741 -0.718948 0.586108
v 0.564389 -0.665323 0.614914
v 0.062968 -1.012023 -0.340436
v 0.084562 -1.031875 -0.273976
v 0.557396 -0.391714 -0.827202
v 0.618638 -0.381277 -0.789547
v 0.969232 0.327935 -0.315051
v 0.961705 0.387379 -0.273977
v -0.291773 -0.146281 1.017185
v -0.328511 -0.205726 0.997333
v -1.063434 -0.146280 0.037237
v -1.055907 -0.205724 -0.003837
v -0.369902 -0.146281 -0.999473
v -0.328511 -0.205726 -1.005007
v 0.600584 -0.321832 -0.827202
v -0.509574 0.681864 0.652569
v -0.570816 0.671427 0.614914
v 0.934291 0.397816 -0.340437
v 0.296462 1.018126 0.163119
v 0.226582 1.037978 0.163119
v -0.531168 0.725052 0.586108
v 0.503147 -0.675759 0.652569
v 0.141096 -1.012023 -0.315050
v -0.369902 -0.146281 0.991799
v -1.063434 -0.146280 -0.044911
v -0.291773 -0.146281 -1.024858
v 0.248175 1.018127 0.229579
v -0.157170 0.859765 -0.610576
v -0.235298 0.859765 -0.585190
v -0.213705 0.816576 -0.651651
v 0.818554 0.178603 0.643981
v 0.831900 0.248484 0.602905
v 0.866840 0.178603 0.577519
v -0.532685 -0.853659 0.330075
v -0.554279 -0.810471 0.396535
v -0.484398 -0.853659 0.396535
vt 0.181819 0.000000
vt 0.227273 0.078731
vt 0.136365 0.078731
vt 0.272728 0.157461
vt 0.318182 0.078731
vt 0.363637 0.157461
vt 0.909091 0.000000
vt 0.954545 0.078731
vt 0.863636 0.078731
vt 0.727273 0.000000
vt 0.772727 0.078731
vt 0.681818 0.078731
vt 0.181819 0.157461
vt 0.272728 0.157461
vt 0.318182 0.236191
vt 0.090910 0.157461
vt 0.181819 0.157461
vt 0.136365 0.236191
vt 0.818182 0.157461
vt 0.909091 0.157461
vt 0.863636 0.236191
vt 0.636364 0.157461
vt 0.727273 0.157461
vt 0.681818 0.236191
vt 0.318182 0.393651
vt 0.227273 0.393651
vt 0.227273 0.393651
vt 0.227273 0.236191
vt 1.000000 0.157461
vt 0.954545 0.236191
vt 0.954545 0.236191
vt 0.954545 0.078731
vt 0.863636 0.078731
vt 0.454546 0.157461
vt 0.500000 0.236191
vt 0.500000 0.236191
vt 0.409092 0.236191
vt 0.181819 0.314921
vt 0.272728 0.314921
vt 0.045455 0.236191
vt 0.136365 0.236191
vt 0.727273 0.314921
vt 0.818182 0.314921
vt 0.772727 0.393651
vt 0.545455 0.314921
vt 0.636364 0.314921
vt 0.590909 0.393651
vt 0.363637 0.314921
vt 0.454546 0.314921
vt 0.409092 0.393651
vt 0.500000 0.393651
vt 0.454546 0.472382
vt 0.681818 0.393651
vt 0.636364 0.472382
vt 0.909091 0.157461
vt 0.863636 0.393651
vt 0.818182 0.472382
vt 0.909091 0.314921
vt 0.045455 0.393651
vt 0.136365 0.393651
vt 0.090910 0.472382
vt 0.090910 0.314921
vt 0.090910 0.314921
vt 0.681818 0.236191
vt 0.636364 0.157461
vt 0.590909 0.236191
vt 0.772727 0.236191
vt 0.000000 0.314921
vt 0.863636 0.236191
vt 0.545455 0.157461
vt 0.500000 0.078731
vt 0.590909 0.078731
vt 0.136365 0.393651
vt 0.090910 0.472382
vt 0.409092 0.078731
vt 0.363637 0.000000
vt 0.318182 0.078731
vt 0.545455 0.000000
vt 0.590909 0.078731
vt 0.500000 0.078731
vt 0.454546 0.157461
vt 0.545455 0.157461
vt 0.090910 0.157461
vt 0.045455 0.236191
vt 0.818182 0.157461
vt 0.772727 0.236191
vt 0.590909 0.236191
vt 0.000000 0.314921
vt 0.045455 0.393651
vt 0.590909 0.393651
vt 0.636364 0.314921
vt 0.681818 0.393651
vt 0.318182 0.393651
vt 0.272728 0.472382
vt 0.409092 0.236191
vt 0.454546 0.314921
vt 0.363637 0.314921
vt 0.227273 0.236191
vt 0.318182 0.236191
vt 0.272728 0.314921
vt 0.227273 0.078731
vt 0.681818 0.078731
vt 0.727273 0.000000
vt 0.409092 0.078731
vt 0.409092 0.393651
vt 0.863636 0.393651
vt 1.000000 0.157461
vt 0.363637 0.000000
vt 0.454546 0.472382
vt 0.909091 0.314921
vn 0.1024 -0.9435 0.3151
vn 0.7002 -0.6617 0.2680
vn -0.2680 -0.9435 0.1947
vn -0.2680 -0.9435 -0.1947
vn 0.5282 -0.0387 0.8483
vn 0.9050 -0.3304 0.2680
vn 0.0247 -0.3304 0.9435
vn -0.8897 -0.3304 0.3151
vn -0.5746 -0.3304 -0.7488
vn 0.7133 0.4717 0.5183
vn 0.8026 -0.1256 0.5831
vn -0.7312 -0.4624 0.5015
vn 0.0122 -0.9999 -0.0089
vn 0.9325 0.0572 -0.3567
vn 0.8026 -0.1256 -0.5831
vn 0.4089 0.6617 0.6284
vn -0.2498 0.5886 0.7689
vn -0.7002 0.6617 -0.2680
vn 0.0385 0.6617 -0.7488
vn 0.7240 0.6617 -0.1947
vn 0.2680 0.9435 -0.1947
vn 0.4911 0.7947 -0.3568
vn 0.4089 0.6617 -0.6284
vn -0.1024 0.9435 -0.3151
vn -0.9079 -0.4186 -0.0229
vn -0.4713 0.6617 -0.5831
vn -0.3313 0.9435 0.0000
vn -0.6071 0.7947 0.0000
vn -0.7002 0.6617 0.2680
vn -0.1024 0.9435 0.3151
vn -0.1876 0.7947 0.5773
vn 0.0385 0.6617 0.7488
vn 0.2358 0.8481 0.4745
vn 0.4911 0.7947 0.3568
vn 0.7240 0.6617 0.1947
vn -0.7384 -0.4691 -0.4845
vn 0.7947 0.1876 -0.5773
vn 0.5746 0.3304 -0.7488
vn -0.0247 0.3304 -0.9435
vn -0.3035 0.1876 -0.9342
vn -0.5346 0.3304 -0.7779
vn -0.9050 0.3304 -0.2680
vn -0.9822 0.1876 0.0000
vn -0.9050 0.3304 0.2680
vn -0.5346 0.3304 0.7779
vn -0.3035 0.1876 0.9342
vn -0.0247 0.3304 0.9435
vn 0.5746 0.3304 0.7488
vn -0.7930 0.6092 0.0000
vn 0.8897 0.3304 0.3151
vn 0.3066 0.1256 -0.9435
vn 0.3035 -0.1876 -0.9342
vn 0.0247 -0.3304 -0.9435
vn -0.8026 0.1256 -0.5831
vn -0.7947 -0.1876 -0.5773
vn -0.8897 -0.3304 -0.3151
vn -0.8026 0.1256 0.5831
vn -0.7947 -0.1876 0.5773
vn -0.5746 -0.3304 0.7488
vn 0.3066 0.1256 0.9435
vn 0.3035 -0.1876 0.9342
vn 0.5346 -0.3304 0.7779
vn 0.9921 0.1256 0.0000
vn 0.9822 -0.1876 0.0000
vn 0.9050 -0.3304 -0.2680
vn 0.4713 -0.6617 -0.5831
vn 0.1876 -0.7947 -0.5773
vn -0.0385 -0.6617 -0.7488
vn -0.4089 -0.6617 -0.6284
vn -0.4911 -0.7947 -0.3568
vn -0.7240 -0.6617 -0.1947
vn -0.7240 -0.6617 0.1947
vn -0.4131 0.8270 0.3813
vn -0.4089 -0.6617 0.6284
vn 0.7002 -0.6617 -0.2680
vn 0.6071 -0.7947 0.0000
vn 0.3313 -0.9435 0.0000
vn -0.0385 -0.6617 0.7488
vn 0.1876 -0.7947 0.5773
vn 0.8061 -0.5917 -0.0080
vn 0.1024 -0.9435 -0.3151
vn 0.5346 -0.3304 -0.7779
vn -0.3066 -0.1256 0.9435
vn -0.9921 -0.1256 0.0000
vn -0.3066 -0.1256 -0.9435
vn -0.4713 0.6617 0.5831
vn -0.1876 0.7947 -0.5773
vn 0.2680 0.9435 0.1947
vn 0.8897 0.3304 -0.3151
vn 0.7947 0.1876 0.5773
vn -0.4911 -0.7947 0.3568
vn 0.4713 -0.6617 0.5831
vn -0.2712 -0.4388 0.8567
vn 0.2606 0.4518 0.8532
vn -0.6886 -0.4692 -0.5529
vn -0.5466 -0.8343 -0.0716
vn 0.4748 -0.8454 0.2449
vn 0.7230 -0.4488 0.5253
vn -0.5262 0.0204 0.8501
vn 0.5270 -0.0448 -0.8487
vn 0.8909 0.4536 -0.0222
vn 0.3042 -0.4656 -0.8311
vn 0.3678 -0.8572 -0.3606
vn 0.0138 0.9990 0.0424
vn 0.3084 0.4118 -0.8575
vn -0.0855 0.0528 -0.9949
vn 0.4944 0.8666 -0.0678
vn 0.9674 -0.0490 0.2483
vn -0.7598 0.4041 -0.5094
vn -0.2168 -0.8492 0.4814
vn -0.2439 0.6140 -0.7506
vn 0.2776 -0.4543 0.8465
vn 0.2754 -0.4534 -0.8477
vn 0.2340 0.8236 -0.5167
vn -0.8158 0.5761 -0.0505
vn -0.7038 -0.4620 0.5397
g Icosphere_Icosphere_Material.001
usemtl Material.001
s off
f 1/1/1 14/2/1 13/3/1
f 2/4/2 14/5/2 16/6/2
f 1/7/3 13/8/3 18/9/3
f 1/10/4 18/11/4 20/12/4
f 2/4/5 64/13/5 44/14/5
f 2/4/6 16/6/6 23/15/6
f 3/16/7 15/17/7 25/18/7
f 4/19/8 19/20/8 27/21/8
f 5/22/9 21/23/9 29/24/9
f 39/25/10 69/26/10 38/27/10
f 2/4/11 23/15/11 26/28/11
f 3/29/12 66/30/12 28/31/12
f 18/9/13 78/32/13 76/33/13
f 6/34/14 57/35/14 31/36/14
f 6/34/15 31/36/15 24/37/15
f 7/38/16 33/39/16 38/27/16
f 28/40/17 51/41/17 25/18/17
f 9/42/18 35/43/18 41/44/18
f 10/45/19 36/46/19 42/47/19
f 11/48/20 37/49/20 39/50/20
f 39/50/21 42/51/21 12/52/21
f 39/50/22 37/49/22 42/51/22
f 37/49/23 10/45/23 42/51/23
f 42/47/24 41/53/24 12/54/24
f 18/9/25 77/55/25 19/20/25
f 36/46/26 9/42/26 41/53/26
f 41/44/27 40/56/27 12/57/27
f 41/44/28 35/43/28 40/56/28
f 35/43/29 8/58/29 40/56/29
f 40/59/30 38/60/30 12/61/30
f 40/59/31 34/62/31 38/60/31
f 34/62/32 7/38/32 38/60/32
f 40/59/33 58/63/33 34/62/33
f 38/27/34 33/39/34 39/25/34
f 33/39/35 11/48/35 39/25/35
f 5/22/36 55/64/36 56/65/36
f 24/37/37 31/36/37 37/49/37
f 31/36/38 10/45/38 37/49/38
f 32/66/39 36/46/39 10/45/39
f 32/66/40 29/24/40 36/46/40
f 29/24/41 9/42/41 36/46/41
f 30/67/42 35/43/42 9/42/42
f 30/67/43 27/21/43 35/43/43
f 27/21/44 8/58/44 35/43/44
f 28/40/45 34/62/45 8/68/45
f 28/40/46 25/18/46 34/62/46
f 25/18/47 7/38/47 34/62/47
f 26/28/48 33/39/48 7/38/48
f 30/67/49 53/69/49 27/21/49
f 23/15/50 11/48/50 33/39/50
f 31/36/51 32/66/51 10/45/51
f 31/36/52 22/70/52 32/66/52
f 22/70/53 5/22/53 32/66/53
f 29/24/54 30/67/54 9/42/54
f 29/24/55 21/23/55 30/67/55
f 21/23/56 4/19/56 30/67/56
f 27/21/57 28/31/57 8/58/57
f 27/21/58 19/20/58 28/31/58
f 19/20/59 3/29/59 28/31/59
f 25/18/60 26/28/60 7/38/60
f 25/18/61 15/17/61 26/28/61
f 15/17/62 2/4/62 26/28/62
f 23/15/63 24/37/63 11/48/63
f 23/15/64 16/6/64 24/37/64
f 16/6/65 6/34/65 24/37/65
f 17/71/66 22/70/66 6/34/66
f 17/71/67 20/72/67 22/70/67
f 20/72/68 5/22/68 22/70/68
f 20/12/69 21/23/69 5/22/69
f 20/12/70 18/11/70 21/23/70
f 18/11/71 4/19/71 21/23/71
f 18/9/72 19/20/72 4/19/72
f 12/61/73 69/73/73 62/74/73
f 13/8/74 3/29/74 19/20/74
f 16/6/75 17/75/75 6/34/75
f 16/6/76 14/5/76 17/75/76
f 14/5/77 1/76/77 17/75/77
f 13/3/78 15/17/78 3/16/78
f 13/3/79 14/2/79 15/17/79
f 2/4/80 43/77/80 14/5/80
f 46/78/81 45/79/81 65/80/81
f 48/81/82 47/82/82 57/35/82
f 52/83/83 51/41/83 66/84/83
f 54/85/84 53/69/84 67/86/84
f 56/65/85 55/64/85 68/87/85
f 59/88/86 58/63/86 63/89/86
f 70/90/87 72/91/87 71/92/87
f 69/26/88 61/93/88 62/94/88
f 49/95/89 60/96/89 50/97/89
f 73/98/90 75/99/90 74/100/90
f 76/33/91 78/32/91 77/55/91
f 43/101/92 44/14/92 64/13/92
f 19/20/93 78/32/93 13/8/93
f 33/39/94 73/98/94 74/100/94
f 4/19/95 67/86/95 30/67/95
f 1/10/96 45/102/96 46/103/96
f 1/76/97 65/104/97 17/75/97
f 23/15/98 73/98/98 26/28/98
f 8/68/99 58/63/99 59/88/99
f 37/49/100 49/95/100 24/37/100
f 33/39/101 75/99/101 23/15/101
f 5/22/102 68/87/102 32/66/102
f 6/34/103 47/82/103 48/81/103
f 41/53/104 70/90/104 71/92/104
f 36/46/105 70/90/105 42/47/105
f 31/36/106 47/82/106 22/70/106
f 11/48/107 60/96/107 37/49/107
f 11/48/108 49/95/108 50/97/108
f 36/46/109 71/92/109 72/91/109
f 14/2/110 64/13/110 15/17/110
f 29/24/111 68/87/111 55/64/111
f 3/16/112 51/41/112 52/83/112
f 20/72/113 65/80/113 45/79/113
f 12/52/114 61/105/114 39/50/114
f 8/58/115 63/106/115 40/56/115
f 4/19/116 53/69/116 54/85/116
f 2/4/5 15/17/5 64/13/5
f 39/25/10 61/93/10 69/26/10
f 3/29/12 52/107/12 66/30/12
f 18/9/13 13/8/13 78/32/13
f 6/34/14 48/81/14 57/35/14
f 28/40/17 66/84/17 51/41/17
f 18/9/25 76/33/25 77/55/25
f 40/59/33 63/89/33 58/63/33
f 5/22/36 29/24/36 55/64/36
f 30/67/49 67/86/49 53/69/49
f 12/61/73 38/60/73 69/73/73
f 2/4/80 44/14/80 43/77/80
f 19/20/93 77/55/93 78/32/93
f 33/39/94 26/28/94 73/98/94
f 4/19/95 54/85/95 67/86/95
f 1/10/96 20/12/96 45/102/96
f 1/76/97 46/108/97 65/104/97
f 23/15/98 75/99/98 73/98/98
f 8/68/99 34/62/99 58/63/99
f 37/49/100 60/96/100 49/95/100
f 33/39/101 74/100/101 75/99/101
f 5/22/102 56/65/102 68/87/102
f 6/34/103 22/70/103 47/82/103
f 41/53/104 42/47/104 70/90/104
f 36/46/105 72/91/105 70/90/105
f 31/36/106 57/35/106 47/82/106
f 11/48/107 50/97/107 60/96/107
f 11/48/108 24/37/108 49/95/108
f 36/46/109 41/53/109 71/92/109
f 14/2/110 43/101/110 64/13/110
f 29/24/111 32/66/111 68/87/111
f 3/16/112 25/18/112 51/41/112
f 20/72/113 17/71/113 65/80/113
f 12/52/114 62/109/114 61/105/114
f 8/58/115 59/110/115 63/106/115
f 4/19/116 27/21/116 53/69/116
